<svg width="22" height="22" viewBox="0 0 22 22" fill="none" xmlns="http://www.w3.org/2000/svg">
<path fill-rule="evenodd" clip-rule="evenodd" d="M16.0303 12.6732C16.3232 12.3803 16.3232 11.9054 16.0303 11.6125C15.8199 11.4021 15.5155 11.3428 15.2522 11.4348C15.1661 11.3292 15.0705 11.2132 14.9674 11.0896C14.5113 10.5429 13.8967 9.83601 13.2803 9.21967C12.664 8.60332 11.9571 7.98874 11.4104 7.53265C11.2868 7.42947 11.1708 7.33394 11.0652 7.24782C11.1572 6.98449 11.0979 6.68011 10.8875 6.46967C10.5946 6.17678 10.1197 6.17678 9.82682 6.46967L6.96967 9.32681C6.67678 9.61971 6.67678 10.0946 6.96967 10.3875C7.18011 10.5979 7.48449 10.6572 7.74782 10.5652C7.83394 10.6708 7.92947 10.7868 8.03266 10.9104C8.35943 11.3021 8.76756 11.776 9.19941 12.2399L5.96967 15.4697C5.67678 15.7626 5.67678 16.2374 5.96967 16.5303C6.26257 16.8232 6.73744 16.8232 7.03033 16.5303L10.2601 13.3006C10.724 13.7324 11.1979 14.1406 11.5896 14.4673C11.7132 14.5705 11.8292 14.6661 11.9348 14.7522C11.8429 15.0155 11.9021 15.3199 12.1125 15.5303C12.4054 15.8232 12.8803 15.8232 13.1732 15.5303L16.0303 12.6732ZM8.86106 9.55675L10.0568 8.36106C10.1738 8.45614 10.3063 8.56492 10.4494 8.68438C10.9811 9.12801 11.6492 9.70986 12.2197 10.2803C12.7901 10.8508 13.372 11.5189 13.8156 12.0506C13.9351 12.1937 14.0439 12.3262 14.1389 12.4433L12.9433 13.6389C12.8262 13.5439 12.6937 13.4351 12.5506 13.3156C12.0189 12.872 11.3508 12.2901 10.7803 11.7197C10.2099 11.1492 9.62802 10.4811 9.18439 9.94945C9.06493 9.80628 8.95615 9.67379 8.86106 9.55675Z" fill="white"/>
<path fill-rule="evenodd" clip-rule="evenodd" d="M11 0.25C10.1339 0.25 9.35968 0.526884 8.52381 0.995945C7.7139 1.45043 6.78586 2.12145 5.61887 2.96524L4.10984 4.05632C3.17331 4.73346 2.42528 5.2743 1.86109 5.77487C1.27855 6.29173 0.842739 6.807 0.566298 7.45513C0.289254 8.10469 0.222248 8.77045 0.259413 9.53808C0.295279 10.2789 0.432639 11.1727 0.603927 12.2872L0.919183 14.3387C1.16256 15.9225 1.35635 17.1836 1.64105 18.1662C1.93544 19.1821 2.35016 19.9887 3.0914 20.6052C3.82957 21.2192 4.7089 21.4926 5.78306 21.6231C6.828 21.75 8.14615 21.75 9.8111 21.75H12.1889C13.8539 21.75 15.172 21.75 16.2169 21.6231C17.2911 21.4926 18.1704 21.2192 18.9086 20.6052C19.6499 19.9887 20.0646 19.1821 20.359 18.1662C20.6437 17.1837 20.8374 15.9225 21.0808 14.3387L21.3961 12.2871C21.5674 11.1726 21.7047 10.2789 21.7406 9.53808C21.7778 8.77045 21.7108 8.10469 21.4337 7.45513C21.1573 6.807 20.7215 6.29173 20.1389 5.77487C19.5747 5.2743 18.8267 4.73347 17.8902 4.05633L16.3811 2.96525C15.2142 2.12145 14.2861 1.45043 13.4762 0.995945C12.6403 0.526884 11.8661 0.25 11 0.25ZM6.46043 4.20777C7.67318 3.33092 8.53198 2.7114 9.25787 2.30406C9.96641 1.90645 10.483 1.75 11 1.75C11.517 1.75 12.0336 1.90645 12.7421 2.30406C13.468 2.7114 14.3268 3.33092 15.5396 4.20777L16.9794 5.24884C17.9551 5.95427 18.6418 6.45189 19.1434 6.8969C19.633 7.33129 19.8961 7.6735 20.054 8.04362C20.2112 8.41233 20.2731 8.83 20.2423 9.46554C20.2107 10.119 20.0862 10.9356 19.9073 12.0995L19.6063 14.0585C19.353 15.7066 19.1726 16.8709 18.9182 17.7487C18.6704 18.6038 18.3761 19.0971 17.9494 19.452C17.5197 19.8094 16.9613 20.0217 16.0361 20.134C15.0921 20.2487 13.865 20.25 12.1388 20.25H9.86119C8.13497 20.25 6.90793 20.2487 5.96392 20.134C5.03868 20.0217 4.48034 19.8094 4.0506 19.452C3.62394 19.0971 3.32959 18.6038 3.08178 17.7487C2.82742 16.8709 2.647 15.7066 2.39373 14.0585L2.09269 12.0995C1.91382 10.9356 1.7893 10.119 1.75766 9.46554C1.72689 8.83 1.78878 8.41232 1.94604 8.04362C2.1039 7.6735 2.36702 7.33129 2.85661 6.8969C3.35817 6.45189 4.04492 5.95427 5.02058 5.24884L6.46043 4.20777Z" fill="white"/>
</svg>
