<svg width="22" height="22" viewBox="0 0 22 22" fill="none" xmlns="http://www.w3.org/2000/svg">
<path d="M9.8889 9.5787L9.47224 8.95508L9.47221 8.9551L9.8889 9.5787ZM10.5787 8.88893L11.2023 9.30562L11.2023 9.30559L10.5787 8.88893ZM10.7472 3.66664L10.1235 4.08323L10.1236 4.08332L10.7472 3.66664ZM10.3334 3.2528L10.7502 2.62928L10.75 2.62917L10.3334 3.2528ZM6.43101 2.99026L6.53999 2.24822L6.53995 2.24821L6.43101 2.99026ZM5.81761 2.61327L6.43167 2.18265L6.43163 2.1826L5.81761 2.61327ZM5.68328 2.36656L6.35411 2.03117L6.3541 2.03114L5.68328 2.36656ZM4.59963 1.0955L4.86298 0.393255L4.86296 0.393249L4.59963 1.0955ZM1.76903 1.19016L2.13451 1.84508L2.13452 1.84508L1.76903 1.19016ZM1.19016 1.76903L1.84508 2.13452L1.84508 2.13451L1.19016 1.76903ZM1.73223 9.2678L1.20189 9.79812L1.20191 9.79815L1.73223 9.2678ZM12.1111 20.5787L12.5278 19.9551L12.5278 19.9551L12.1111 20.5787ZM11.4213 19.8889L12.0449 19.4722L12.0449 19.4722L11.4213 19.8889ZM11.2528 14.6666L10.6292 14.2499L10.6292 14.25L11.2528 14.6666ZM11.6666 14.2528L11.25 13.6292L11.2499 13.6292L11.6666 14.2528ZM15.569 13.9903L15.6776 14.7324L15.6781 14.7323L15.569 13.9903ZM16.1824 13.6133L16.7965 14.0439L16.7969 14.0432L16.1824 13.6133ZM16.3167 13.3666L15.6459 13.0312L15.6458 13.0314L16.3167 13.3666ZM17.4004 12.0955L17.1371 11.3932L17.137 11.3933L17.4004 12.0955ZM20.231 12.1902L19.8655 12.8451L19.8656 12.8452L20.231 12.1902ZM20.8098 12.769L20.1548 13.1344L20.1549 13.1345L20.8098 12.769ZM20.2678 20.2678L20.7981 20.7982L20.7982 20.7981L20.2678 20.2678ZM18.3358 7.25C17.9216 7.25 17.5858 7.58579 17.5858 8C17.5858 8.41421 17.9216 8.75 18.3358 8.75V7.25ZM21 8V8.75C21.2151 8.75 21.4199 8.65763 21.5623 8.49635C21.7046 8.33508 21.7709 8.12044 21.7442 7.90697L21 8ZM15.1233 0.260205C14.7147 0.192108 14.3283 0.468123 14.2602 0.876701C14.1921 1.28528 14.4681 1.6717 14.8767 1.7398L15.1233 0.260205ZM3.66416 14.75C4.07837 14.75 4.41416 14.4142 4.41416 14C4.41416 13.5858 4.07837 13.25 3.66416 13.25V14.75ZM1 14V13.25C0.784877 13.25 0.58011 13.3424 0.437741 13.5036C0.295372 13.6649 0.229109 13.8796 0.255792 14.093L1 14ZM6.8767 21.7398C7.28528 21.8079 7.6717 21.5319 7.7398 21.1233C7.80789 20.7147 7.53188 20.3283 7.1233 20.2602L6.8767 21.7398ZM6 10.75H6.625V9.25H6V10.75ZM6.625 10.75C7.48718 10.75 8.19027 10.7509 8.75475 10.6935C9.33175 10.6348 9.84655 10.509 10.3056 10.2023L9.47221 8.9551C9.30075 9.06968 9.06138 9.15456 8.60295 9.20119C8.132 9.24909 7.51839 9.25 6.625 9.25V10.75ZM10.3056 10.2023C10.6605 9.96519 10.9652 9.66048 11.2023 9.30562L9.95511 8.47224C9.82742 8.66332 9.66334 8.82741 9.47224 8.95508L10.3056 10.2023ZM11.2023 9.30559C11.509 8.84654 11.6348 8.33176 11.6935 7.75475C11.7509 7.19027 11.75 6.48718 11.75 5.625H10.25C10.25 6.5184 10.2491 7.132 10.2012 7.60295C10.1546 8.06137 10.0697 8.30076 9.95509 8.47227L11.2023 9.30559ZM11.75 5.625C11.75 5.11393 11.7509 4.67418 11.7145 4.31679C11.6769 3.94685 11.5933 3.5829 11.3708 3.24996L10.1236 4.08332C10.1539 4.12872 10.1967 4.21727 10.2223 4.4686C10.2491 4.73246 10.25 5.08272 10.25 5.625H11.75ZM11.3709 3.25005C11.2066 3.00421 10.9956 2.79333 10.7502 2.62928L9.91659 3.87632C9.9986 3.93113 10.069 4.00151 10.1235 4.08323L11.3709 3.25005ZM10.75 2.62917C10.4171 2.40673 10.0531 2.32308 9.68319 2.28545C9.32579 2.24909 8.88604 2.25 8.375 2.25V3.75C8.91726 3.75 9.26751 3.75091 9.53138 3.77775C9.78272 3.80332 9.87132 3.84607 9.91677 3.87643L10.75 2.62917ZM8.375 2.25H6.71393V3.75H8.375V2.25ZM6.71393 2.25C6.63778 2.25 6.59551 2.24994 6.56375 2.24906C6.53558 2.24829 6.53307 2.2472 6.53999 2.24822L6.32203 3.7323C6.4555 3.7519 6.59285 3.75 6.71393 3.75V2.25ZM6.53995 2.24821C6.49418 2.24149 6.45551 2.21666 6.43167 2.18265L5.20355 3.04389C5.46597 3.41809 5.8713 3.66613 6.32207 3.73231L6.53995 2.24821ZM6.43163 2.1826C6.4361 2.18897 6.43435 2.18785 6.42135 2.16356C6.40662 2.13604 6.38793 2.09882 6.35411 2.03117L5.01245 2.70195C5.06595 2.80896 5.12579 2.93302 5.20359 3.04394L6.43163 2.1826ZM6.3541 2.03114C6.12951 1.58198 5.77222 0.734229 4.86298 0.393255L4.33628 1.79774C4.59 1.89289 4.71227 2.1016 5.01246 2.70198L6.3541 2.03114ZM4.86296 0.393249C4.45055 0.238602 3.99499 0.25 3.47214 0.25V1.75C4.11303 1.75 4.23935 1.7614 4.3363 1.79775L4.86296 0.393249ZM3.47214 0.25C3.03142 0.25 2.65215 0.249321 2.34192 0.276667C2.02183 0.304883 1.70447 0.367304 1.40354 0.53524L2.13452 1.84508C2.17434 1.82286 2.25441 1.7902 2.47363 1.77087C2.70271 1.75068 3.00462 1.75 3.47214 1.75V0.25ZM1.40355 0.535236C1.0392 0.738563 0.738563 1.0392 0.535236 1.40355L1.84508 2.13451C1.91286 2.01306 2.01306 1.91286 2.13451 1.84508L1.40355 0.535236ZM0.53524 1.40354C0.367304 1.70447 0.304883 2.02183 0.276667 2.34192C0.249321 2.65215 0.25 3.03142 0.25 3.47214H1.75C1.75 3.00462 1.75068 2.70271 1.77087 2.47363C1.7902 2.25441 1.82286 2.17434 1.84508 2.13452L0.53524 1.40354ZM0.25 3.47214V5H1.75V3.47214H0.25ZM0.25 5C0.25 6.15731 0.248407 7.10074 0.348216 7.84312C0.450927 8.60707 0.673207 9.26941 1.20189 9.79812L2.26257 8.73748C2.05902 8.53392 1.91519 8.24087 1.83484 7.64325C1.75159 7.02405 1.75 6.19971 1.75 5H0.25ZM1.20191 9.79815C1.73061 10.3268 2.39295 10.5491 3.15689 10.6518C3.89926 10.7516 4.84269 10.75 6 10.75V9.25C4.80029 9.25 3.97595 9.24841 3.35675 9.16516C2.75913 9.08482 2.46609 8.94099 2.26255 8.73746L1.20191 9.79815ZM16 20.25H15.375V21.75H16V20.25ZM15.375 20.25C14.4816 20.25 13.868 20.2491 13.397 20.2012C12.9386 20.1546 12.6993 20.0697 12.5278 19.9551L11.6944 21.2023C12.1534 21.509 12.6682 21.6348 13.2452 21.6935C13.8097 21.7509 14.5128 21.75 15.375 21.75V20.25ZM12.5278 19.9551C12.3367 19.8274 12.1726 19.6633 12.0449 19.4722L10.7977 20.3056C11.0348 20.6605 11.3395 20.9652 11.6944 21.2023L12.5278 19.9551ZM12.0449 19.4722C11.9303 19.3007 11.8454 19.0614 11.7988 18.603C11.7509 18.132 11.75 17.5184 11.75 16.625H10.25C10.25 17.4872 10.2491 18.1903 10.3065 18.7548C10.3652 19.3318 10.491 19.8466 10.7977 20.3056L12.0449 19.4722ZM11.75 16.625C11.75 16.0827 11.7509 15.7325 11.7777 15.4686C11.8033 15.2173 11.8461 15.1287 11.8764 15.0832L10.6292 14.25C10.4067 14.5829 10.3231 14.9469 10.2855 15.3168C10.2491 15.6742 10.25 16.114 10.25 16.625H11.75ZM11.8764 15.0833C11.9311 15.0015 12.0015 14.9311 12.0833 14.8764L11.2499 13.6292C11.0043 13.7933 10.7933 14.0043 10.6292 14.2499L11.8764 15.0833ZM12.0832 14.8764C12.1287 14.8461 12.2173 14.8033 12.4686 14.7777C12.7325 14.7509 13.0827 14.75 13.625 14.75V13.25C13.114 13.25 12.6742 13.2491 12.3168 13.2855C11.9469 13.3231 11.5829 13.4067 11.25 13.6292L12.0832 14.8764ZM13.625 14.75H15.2861V13.25H13.625V14.75ZM15.2861 14.75C15.4072 14.75 15.5444 14.7519 15.6776 14.7324L15.4604 13.2482C15.4672 13.2472 15.4646 13.2483 15.4364 13.2491C15.4046 13.2499 15.3622 13.25 15.2861 13.25V14.75ZM15.6781 14.7323C16.1287 14.6661 16.534 14.4182 16.7965 14.0439L15.5683 13.1827C15.5446 13.2166 15.5059 13.2415 15.4599 13.2483L15.6781 14.7323ZM16.7969 14.0432C16.8742 13.9327 16.9336 13.8098 16.9876 13.7018L15.6458 13.0314C15.6121 13.0987 15.5934 13.136 15.5787 13.1634C15.5657 13.1876 15.5638 13.1892 15.5679 13.1834L16.7969 14.0432ZM16.9875 13.702C17.2877 13.1017 17.41 12.8929 17.6638 12.7977L17.137 11.3933C16.2278 11.7343 15.8705 12.5819 15.6459 13.0312L16.9875 13.702ZM17.6637 12.7978C17.7607 12.7614 17.887 12.75 18.5279 12.75V11.25C18.005 11.25 17.5495 11.2386 17.1371 11.3932L17.6637 12.7978ZM18.5279 12.75C18.9954 12.75 19.2973 12.7507 19.5264 12.7709C19.7455 12.7902 19.8256 12.8229 19.8655 12.8451L20.5965 11.5353C20.2956 11.3673 19.9782 11.3049 19.6581 11.2767C19.3479 11.2493 18.9686 11.25 18.5279 11.25V12.75ZM19.8656 12.8452C19.987 12.9129 20.0871 13.013 20.1548 13.1344L21.4648 12.4036C21.2615 12.0392 20.9608 11.7385 20.5964 11.5352L19.8656 12.8452ZM20.1549 13.1345C20.1771 13.1744 20.2098 13.2545 20.2291 13.4736C20.2493 13.7027 20.25 14.0046 20.25 14.4721H21.75C21.75 14.0314 21.7507 13.6521 21.7233 13.3419C21.6951 13.0218 21.6327 12.7044 21.4647 12.4035L20.1549 13.1345ZM20.25 14.4721V16H21.75V14.4721H20.25ZM20.25 16C20.25 17.1997 20.2484 18.024 20.1652 18.6432C20.0848 19.2409 19.941 19.5339 19.7374 19.7375L20.7982 20.7981C21.3268 20.2694 21.5491 19.607 21.6518 18.8431C21.7516 18.1007 21.75 17.1573 21.75 16H20.25ZM19.7375 19.7374C19.5339 19.941 19.2409 20.0848 18.6432 20.1652C18.024 20.2484 17.1997 20.25 16 20.25V21.75C17.1573 21.75 18.1007 21.7516 18.8431 21.6518C19.607 21.5491 20.2694 21.3268 20.7981 20.7982L19.7375 19.7374ZM18.3358 8.75H21V7.25H18.3358V8.75ZM21.7442 7.90697C21.2086 3.62225 18.4927 0.821771 15.1233 0.260205L14.8767 1.7398C17.5073 2.17823 19.7914 4.37775 20.2558 8.09303L21.7442 7.90697ZM3.66416 13.25H1V14.75H3.66416V13.25ZM0.255792 14.093C0.791382 18.3778 3.5073 21.1782 6.8767 21.7398L7.1233 20.2602C4.4927 19.8218 2.20862 17.6222 1.74421 13.907L0.255792 14.093Z" fill="white"/>
</svg>
